<svg width="73" height="72" viewBox="0 0 73 72" fill="none" xmlns="http://www.w3.org/2000/svg">
<rect x="0.5" width="72" height="72" rx="36" fill="#F5F3F3"/>
<path d="M64.9358 35.2682C62.0258 30.878 58.0246 27.2195 52.5684 24.6585C47.8396 22.4634 42.0196 21 36.1996 21C30.3796 21 24.5596 22.0976 19.8309 24.6585C14.3746 27.2195 10.3734 30.878 7.46338 35.2682L7.09961 36L7.46338 36.7318C10.3734 41.122 14.3746 44.7805 19.8309 47.3415C24.5596 49.5366 30.3796 51 36.1996 51C42.0196 51 47.8396 49.9024 52.5684 47.3415C58.0246 44.7805 62.0258 41.122 64.9358 36.7318L65.2996 36L64.9358 35.2682ZM10.0096 36C12.5558 32.3415 16.1933 29.0488 20.9221 26.8537C23.1046 25.7561 25.2871 25.0244 27.4696 24.6585C24.5596 27.2195 22.7408 31.2439 22.7408 36C22.7408 40.7561 24.5597 44.7805 27.8334 47.3415C25.6509 46.9756 23.4683 45.878 21.2858 45.1463C16.1933 42.9512 12.5558 39.6585 10.0096 36ZM51.4772 45.1463C47.1122 46.9756 42.3833 48.0731 37.2908 48.439C30.7433 48.439 25.2871 43.3171 25.2871 36.3659C25.2871 29.7805 30.3796 24.6585 36.5634 24.6585C42.3834 24.6585 46.7483 28.683 46.7483 34.9025C46.7483 38.561 44.5658 42.2195 42.7471 42.2195C41.2921 42.2195 42.0197 40.3902 42.3834 38.9268L44.2022 29.0488H41.6559L41.2921 31.244C39.8371 29.4147 38.3821 28.6829 36.1996 28.6829C31.4709 28.6829 28.5608 33.0732 28.5608 37.8293C28.5608 41.8537 31.4709 44.7805 34.7446 44.7805C36.9271 44.7805 38.7459 43.6829 39.8371 42.5853C40.2009 44.0487 40.9284 44.7805 42.0196 44.7805C43.8384 44.7805 46.0209 44.0488 47.8397 41.4878C49.2947 39.6585 50.0221 36.7317 50.0221 33.439C50.0221 30.1463 48.5671 27.5854 46.7483 25.3903C48.5671 25.7561 50.0221 26.4878 51.8408 27.2195C56.2058 29.4147 60.2071 32.3415 62.7533 36.3659C59.8433 39.6586 56.2059 42.9512 51.4772 45.1463ZM40.2009 36.3659C39.8371 38.9268 38.3822 41.4878 35.1084 41.4878C32.9259 41.4878 31.4709 39.2926 31.4709 37.0975C31.4709 34.1707 33.2896 31.244 36.5634 31.244C38.7459 31.244 40.5646 33.0732 40.2009 36.3659Z" fill="black"/>
</svg>
